# xmcd
#
# Track frame offsets:
# 150
# 12785
# 22707
# 34747
# 45265
# 60312
# 68912
# 81745
# 95455
# 108935
#
# Disc length: 1605 seconds
#
#
# Revision: 0
# Processed by: cddbd v1.5.1PL0 Copyright (c) Steve Scherf et al.
# Submitted via: FreeRIP 2.70 
#
DISCID=6d06430a
DTITLE=Charlie Pride - The Incomparable Charlie Pride
DYEAR=1900
DGENRE=Country
TTITLE0=I'd Rather Love You
TTITLE1=Time (You're not a Friend of Mine)
TTITLE2=Jeanie Norman
TTITLE3=Anywhere (Just Inside Your Arms)
TTITLE4=When The Trains Come In
TTITLE5=Piroque Joe
TTITLE6=Was It All Worth Losing You
TTITLE7=Instant Loneliness
TTITLE8=This Highway Leads To Glory
TTITLE9=Time Out For Jesus
EXTD=
EXTT0=
EXTT1=
EXTT2=
EXTT3=
EXTT4=
EXTT5=
EXTT6=
EXTT7=
EXTT8=
EXTT9=
PLAYORDER=
